<svg id="Layer_1" data-name="Layer 1" xmlns="http://www.w3.org/2000/svg" viewBox="0 0 431.293 1799.846">
  <defs>
    <style>
      .cls-1 {
        fill: #3b82f6;
      }

      .cls-2 {
        fill: #f7ed38;
      }
    </style>
  </defs>
  <title>Artboard 1</title>
  <g id="Layer_2" data-name="Layer 2">
    <g id="Layer_1-2" data-name="Layer 1-2">
      <g id="_Group_" data-name=" Group ">
        <g>
          <path id="_Path_" data-name=" Path " class="cls-1" d="M66.917,1540.406v-23.8a20.758,20.758,0,0,1,20.755-20.763h249.4a20.76,20.76,0,0,1,20.76,20.759h0v23.8a20.76,20.76,0,0,1-20.76,20.76H87.677A20.761,20.761,0,0,1,66.917,1540.406Z"/>
          <rect id="_Path_2" data-name=" Path 2" class="cls-1" x="99.241" y="1570.583" width="226.268" height="65.322" rx="20.76" ry="20.76"/>
          <path id="_Path_3" data-name=" Path 3" class="cls-1" d="M180.919,1400.347a20.76,20.76,0,0,1-20.759,20.76H60.045a20.758,20.758,0,0,0-20.76,20.759h0v23.8a20.759,20.759,0,0,0,20.76,20.76H364.706a20.76,20.76,0,0,0,20.76-20.76h0v-23.8a20.76,20.76,0,0,0-20.76-20.759H264.59a20.761,20.761,0,0,1-20.76-20.76h0l.041-394.658-62.911-36.8Z"/>
        </g>
        <g>
          <path id="_Path_4" data-name=" Path 4" class="cls-1" d="M45.827,334.178v23.8a20.76,20.76,0,0,0,20.76,20.759H166.7a20.76,20.76,0,0,1,20.76,20.76h0l-.021,402.841,62.91,34.348.022-437.189a20.76,20.76,0,0,1,20.759-20.76H371.248a20.76,20.76,0,0,0,20.76-20.759v-23.8a20.758,20.758,0,0,0-20.759-20.76H66.588A20.761,20.761,0,0,0,45.827,334.178Z"/>
          <path id="_Path_5" data-name=" Path 5" class="cls-1" d="M73.459,283.242v-23.8a20.761,20.761,0,0,1,20.76-20.76h249.4a20.76,20.76,0,0,1,20.759,20.76h0v23.8A20.759,20.759,0,0,1,343.617,304H94.22A20.761,20.761,0,0,1,73.459,283.242Z"/>
          <rect id="_Path_6" data-name=" Path 6" class="cls-1" x="105.783" y="163.941" width="226.268" height="65.322" rx="20.76" ry="20.76"/>
        </g>
        <polygon id="_Path_7" data-name=" Path 7" class="cls-2" points="167.378 812.032 180.551 903.052 45.894 872.543 260.644 993.544 247.47 902.525 382.128 933.034 167.378 812.032"/>
      </g>
    </g>
  </g>
</svg>
