<svg id="Layer_1" data-name="Layer 1" xmlns="http://www.w3.org/2000/svg" viewBox="0 0 1799.846 431.293">
  <defs>
    <style>
      .cls-1 {
        fill: #fff;
      }

      .cls-2 {
        fill: #f7ed38;
      }
    </style>
  </defs>
  <title>logo-white</title>
  <g id="Layer_2" data-name="Layer 2">
    <g id="Layer_1-2" data-name="Layer 1-2">
      <g id="_Group_" data-name=" Group ">
        <g>
          <path id="_Path_" data-name=" Path " class="cls-1" d="M116.771,33.787h29.1a25.383,25.383,0,0,1,25.388,25.378h0V364.122a25.384,25.384,0,0,1-25.384,25.384H116.77a25.384,25.384,0,0,1-25.384-25.384h0V59.172a25.385,25.385,0,0,1,25.385-25.385Z"/>
          <rect id="_Path_2" data-name=" Path 2" class="cls-1" y="73.311" width="79.873" height="276.67" rx="25.384" ry="25.384"/>
          <path id="_Path_3" data-name=" Path 3" class="cls-1" d="M288.029,173.184A25.384,25.384,0,0,1,262.645,147.8h0V25.385A25.384,25.384,0,0,0,237.262,0h-29.1a25.384,25.384,0,0,0-25.384,25.384h0V397.909a25.384,25.384,0,0,0,25.384,25.384h29.1a25.384,25.384,0,0,0,25.384-25.384h0V275.492a25.384,25.384,0,0,1,25.384-25.384h0l482.568.05,45-76.924Z"/>
        </g>
        <g>
          <path id="_Path_4" data-name=" Path 4" class="cls-1" d="M1591.689,8h-29.105A25.384,25.384,0,0,0,1537.2,33.384h0V155.8a25.384,25.384,0,0,1-25.384,25.384h0l-492.574-.026-42,76.924,534.574.026a25.384,25.384,0,0,1,25.384,25.384h0V405.909a25.384,25.384,0,0,0,25.383,25.384h29.105a25.384,25.384,0,0,0,25.385-25.383h0V33.385A25.386,25.386,0,0,0,1591.689,8Z"/>
          <path id="_Path_5" data-name=" Path 5" class="cls-1" d="M1653.971,41.787h29.1a25.384,25.384,0,0,1,25.384,25.384h0V372.122a25.384,25.384,0,0,1-25.384,25.384h-29.1a25.383,25.383,0,0,1-25.383-25.383h0V67.172A25.386,25.386,0,0,1,1653.971,41.787Z"/>
          <rect id="_Path_6" data-name=" Path 6" class="cls-1" x="1719.973" y="81.311" width="79.873" height="276.67" rx="25.384" ry="25.384"/>
        </g>
        <polygon id="_Path_7" data-name=" Path 7" class="cls-2" points="1007.392 156.626 896.097 172.734 933.402 8.081 785.448 270.667 896.742 254.559 859.437 419.212 1007.392 156.626"/>
      </g>
    </g>
  </g>
</svg>
